<svg xmlns="http://www.w3.org/2000/svg" viewBox="0 0 512 512" width="512" height="512">
<path d="M 256,48 L 64,144 L 64,352 Q 64,448 256,480 L 256,48" fill="#D4AF37" />
<path d="M 256,48 L 448,144 L 448,352 Q 448,448 256,480 L 256,48" fill="#D4AF37" />
<path d="M 256,48 L 448,144 L 448,352 Q 448,448 256,480 Q 64,448 64,352 L 64,144 Z" fill="none" stroke="#D4AF37" stroke-width="12" stroke-linejoin="round" />
<path d="M 64,224 L 256,128 L 256,176 L 64,272 Z" fill="#D4AF37" />
<path d="M 256,128 L 448,224 L 448,272 L 256,176 Z" fill="#D4AF37" />
<polygon points="80,280 96,272 96,296 80,304" fill="#D4AF37" />
<polygon points="112,264 144,248 144,272 112,288" fill="#D4AF37" />
<polygon points="160,240 200,220 200,244 160,264" fill="#D4AF37" />
<polygon points="216,212 240,200 240,224 216,236" fill="#D4AF37" />
<polygon points="416,144 432,152 432,176 416,168" fill="#D4AF37" />
<polygon points="368,120 400,136 400,160 368,144" fill="#D4AF37" />
<polygon points="312,92 352,112 352,136 312,116" fill="#D4AF37" />
<polygon points="272,72 296,84 296,108 272,96" fill="#D4AF37" />
<circle cx="256" cy="368" r="24" fill="#D4AF37" />
<path d="M 256,264 L 304,368 Q 256,336 208,368 Z" fill="#D4AF37" />
<path d="M 216,288 C 144,240 112,304 112,352 C 112,408 176,440 232,416" fill="none" stroke="#D4AF37" stroke-width="24" stroke-linecap="round" />
<path d="M 296,288 C 368,240 400,304 400,352 C 400,408 336,440 280,416" fill="none" stroke="#D4AF37" stroke-width="24" stroke-linecap="round" />
<path d="M 96,352 Q 256,464 416,352" fill="none" stroke="#D4AF37" stroke-width="12" stroke-linecap="round" />
</svg>